<svg width="500" height="500" viewBox="0 0 500 500" fill="none" xmlns="http://www.w3.org/2000/svg">
<g clip-path="url(#clip0_174_925)">
<path d="M500 500H0V0H500V500ZM312 290C311.5 290 310.6 291.9 310 294.2C303.3 320.4 290.8 336.3 264.8 351.9C228.9 373.6 217.9 384.4 210.9 404.9C209.001 410.2 208.4 414.999 209.6 415C209.9 415 213.2 412.4 216.8 409.3C229.6 398.4 241.3 391.9 268.6 380.5C298.8 367.7 310 361.2 320.2 350.2C328.6 341 330.5 336.5 330.5 325C330.5 316.2 330.2 315 327.1 308.8C323.999 302.5 313.9 290 312 290ZM349 98.4004C349 90.4004 348.8 90.3998 335.5 97.2998C323 103.8 318.6 106.7 308.4 114.6C281.8 135.2 259.8 171.7 252.7 206.8C251.8 210.8 250.7 214.7 250.1 215.4C249.399 216.3 245.199 216.9 237.7 217.3C224.8 217.9 217.5 219.7 207.1 224.6C184.4 235.3 171.5 250.9 161.1 280.2C157.9 289.2 153.9 299.6 152.1 303.4C150.4 307.199 149.001 310.698 149 311.1C149 311.6 151.7 312 154.9 312C161.6 312 165.8 313.2 166.6 315.5C167.6 318.1 164 325.9 159.9 330.2L156 334.3L159.3 338.9C165.9 348 177.9 351.6 192 348.6C212.4 344.3 226.7 331.8 236.1 310C240.3 300.3 241.9 298.7 244.9 301.4C247.7 303.901 247.6 309.7 244.9 318.1C242.2 326.5 238.7 332.3 232.6 338.8C226.6 345.1 227.2 346 237 346C258.6 346 283 329.4 293.5 307.5C298.5 297.2 300.3 289.1 300.3 277.5C300.3 262.6 295.8 248 288.3 239.2L285.5 235.9L279 239.4C269.5 244.6 264 244 264 238C264 234.6 265.5 233.3 275.5 228.1C299.9 215.2 322.2 192.2 333.8 167.8C343.1 148.1 349 121.4 349 98.4004ZM203 270.2C206.7 268.3 208.7 267.9 214.7 268.2C218.6 268.4 222.2 268.8 222.5 269.2C223.499 270.201 215.8 282.1 212.7 284.4C210.4 286.1 208.4 286.5 202.5 286.5C198.2 286.5 194.601 286 193.9 285.3C191.1 282.5 196.5 273.6 203 270.2ZM283 86.2002C282.2 86.1002 279 87.5997 276 89.5996C246.6 109.3 226.6 139.7 219 176.2C216.8 186.7 214.401 207.698 215.2 208.6C215.5 208.9 217.7 208.6 220.1 208C222.5 207.3 228.2 206.5 232.9 206.2L241.3 205.5L243.2 198C250.1 171.4 263.3 145.9 281.5 124.4L285.5 119.7L285.8 108.6C286.2 95.2999 285.1 86.6003 283 86.2002Z" fill="#42275A"/>
</g>
<defs>
<clipPath id="clip0_174_925">
<rect width="500" height="500" rx="39" fill="white"/>
</clipPath>
</defs>
</svg>
